<svg enable-background="new 0 0 512 512" height="512" viewBox="0 0 512 512" width="512" xmlns="http://www.w3.org/2000/svg"><g id="_x33_90_x2C__Balloon_x2C__Celebration_x2C__Party"><g><g><circle cx="443.5" cy="71" fill="#f88f19" r="30"/><circle cx="78.5" cy="376" fill="#f88f19" r="40"/><path d="m360.89 374.57c.561 1.939.82 3.87.82 5.77 0 11.05-8.96 20.66-20.71 20.66-13.77 0-23.7-13.19-19.89-26.43l2.93-10.181c5.52 1.061 11.19 1.61 16.96 1.61s11.44-.55 16.96-1.61z" fill="#ffb530"/><path d="m195.89 299.57c.56 1.939.82 3.87.82 5.77 0 11.05-8.96 20.66-20.71 20.66-13.77 0-23.7-13.19-19.89-26.43l2.93-10.181c5.52 1.061 11.19 1.61 16.96 1.61s11.43-.55 16.96-1.61z" fill="#19ab5c"/><path d="m324.04 364.39c-42.521-8.149-76.74-46.439-87.22-96.199-2.17-10.29-3.32-21.081-3.32-32.19 0-44.49 18.48-83.76 46.67-107.19 17.3-14.391 38.25-22.811 60.83-22.811 59.37 0 107.5 58.2 107.5 130 0 64.82-39.23 118.56-90.54 128.39-5.52 1.06-11.19 1.61-16.96 1.61s-11.44-.55-16.96-1.61z" fill="#ffdd40"/><path d="m192.96 289.39c-5.53 1.06-11.19 1.61-16.96 1.61s-11.44-.55-16.96-1.61c-51.31-9.83-90.54-63.57-90.54-128.39 0-71.8 48.13-130 107.5-130 50.18 0 92.33 41.58 104.17 97.81-28.19 23.43-46.67 62.7-46.67 107.19 0 11.11 1.15 21.9 3.32 32.19-12.87 10.71-27.77 18.12-43.86 21.2z" fill="#07cc66"/><circle cx="466" cy="138.5" r="7.5"/><circle cx="446" cy="393.5" r="7.5"/><circle cx="296" cy="448.5" r="7.5"/><circle cx="281" cy="33.5" r="7.5"/><circle cx="226" cy="363.5" r="7.5"/><circle cx="131" cy="453.5" r="7.5"/><circle cx="66" cy="283.5" r="7.5"/><circle cx="46" cy="73.5" r="7.5"/><path d="m176 331c-8.148 0-15.631-3.732-20.531-10.241-4.901-6.511-6.419-14.737-4.164-22.571l2.899-10.071c.563-2.146 2.515-3.731 4.836-3.731 2.761 0 5 2.233 5 4.995v.01c0 .468-.065.934-.195 1.383l-2.93 10.181c-1.378 4.787-.451 9.814 2.543 13.791 2.993 3.974 7.564 6.254 12.542 6.254 8.663 0 15.71-7.025 15.71-15.66 0-1.476-.21-2.949-.624-4.383l-2.932-10.185c-.129-.449-.195-.915-.195-1.383 0-2.762 2.239-5.005 5-5.005 2.35 0 4.32 1.617 4.857 3.8l2.879 10.003c.673 2.33 1.015 4.738 1.015 7.152 0 14.15-11.533 25.661-25.71 25.661z"/><path d="m341 406c-8.148 0-15.632-3.733-20.531-10.242-4.9-6.51-6.418-14.736-4.163-22.57l2.897-10.071c.564-2.147 2.516-3.731 4.837-3.731 2.762 0 5 2.233 5 4.995v.01c0 .468-.065.934-.195 1.383l-2.93 10.181c-1.378 4.787-.45 9.814 2.543 13.791 2.993 3.974 7.564 6.254 12.542 6.254 8.662 0 15.71-7.025 15.71-15.66 0-1.476-.21-2.949-.624-4.381l-2.931-10.187c-.13-.449-.195-.915-.195-1.383 0-2.762 2.238-5.005 5-5.005 2.35 0 4.32 1.617 4.857 3.801l2.878 10.002c.674 2.329 1.016 4.737 1.016 7.152-.001 14.15-11.534 25.661-25.711 25.661z"/><path d="m176 296c-6.008 0-12.031-.572-17.903-1.7-26.258-5.03-50.281-21.219-67.64-45.582-17.384-24.398-26.957-55.549-26.957-87.718 0-74.439 50.467-135 112.5-135 51.596 0 96.444 41.854 109.063 101.78.569 2.702-1.16 5.354-3.862 5.923-2.708.571-5.354-1.161-5.923-3.862-11.635-55.253-52.459-93.841-99.278-93.841-56.519 0-102.5 56.075-102.5 125 0 60.949 37.179 114.033 86.481 123.478 10.499 2.018 21.504 2.021 32.037.001 15.006-2.873 29.003-9.646 41.604-20.132 2.123-1.77 5.276-1.478 7.041.645 1.767 2.122 1.478 5.275-.645 7.041-13.917 11.582-29.433 19.073-46.118 22.268-5.88 1.127-11.903 1.699-17.9 1.699z"/><path d="m341 371c-6.009 0-12.032-.572-17.903-1.7-44.369-8.504-80.156-47.787-91.169-100.079-2.275-10.783-3.428-21.961-3.428-33.221 0-44.298 18.121-85.807 48.474-111.035 18.847-15.678 40.988-23.965 64.026-23.965 62.033 0 112.5 60.561 112.5 135 0 32.169-9.573 63.32-26.957 87.718-17.359 24.363-41.382 40.552-67.643 45.583-5.868 1.127-11.891 1.699-17.9 1.699zm0-260c-20.673 0-40.602 7.488-57.633 21.654-28.095 23.352-44.867 61.985-44.867 103.346 0 10.568 1.081 21.051 3.212 31.159 10.18 48.339 42.866 84.576 83.269 92.319 10.506 2.02 21.533 2.019 32.035.001 49.305-9.446 86.484-62.53 86.484-123.479 0-68.925-45.982-125-102.5-125z"/><path d="m270.71 241c-2.762 0-5-2.239-5-5 0-28.186 10.718-54.208 29.406-71.391 2.03-1.868 5.194-1.737 7.064.296 1.869 2.033 1.736 5.196-.297 7.065-16.633 15.296-26.173 38.634-26.173 64.03 0 2.761-2.238 5-5 5z"/><path d="m108.5 161c-2.761 0-5-2.239-5-5 0-49.626 33.775-90 75.29-90 2.761 0 5 2.239 5 5s-2.239 5-5 5c-36.001 0-65.29 35.888-65.29 80 0 2.761-2.239 5-5 5z"/><path d="m341 486c-2.762 0-5-2.238-5-5v-80c0-2.762 2.238-5 5-5s5 2.238 5 5v80c0 2.762-2.238 5-5 5z"/><path d="m176 486c-2.761 0-5-2.238-5-5v-155c0-2.762 2.239-5 5-5s5 2.238 5 5v155c0 2.762-2.239 5-5 5z"/><path d="m443.5 106c-19.299 0-35-15.701-35-35s15.701-35 35-35 35 15.701 35 35-15.701 35-35 35zm0-60c-13.785 0-25 11.215-25 25s11.215 25 25 25 25-11.215 25-25-11.215-25-25-25z"/><path d="m78.5 421c-24.813 0-45-20.186-45-45s20.187-45 45-45 45 20.186 45 45-20.187 45-45 45zm0-80c-19.299 0-35 15.701-35 35s15.701 35 35 35 35-15.701 35-35-15.701-35-35-35z"/></g></g></g></svg>