<svg height="512" viewBox="0 0 32 32" width="512" xmlns="http://www.w3.org/2000/svg"><g id="Layer_2" data-name="Layer 2"><path d="m30.6 12.11v4.59l-2.05 4.94-2.73 6.59a3.015 3.015 0 0 1 -2.77 1.86 3.064 3.064 0 0 1 -1.15-.23l-16.65-6.9a3.081 3.081 0 0 1 -1.75-1.98l-2.14-7.8a3.978 3.978 0 0 1 .47-3.17 3.788 3.788 0 0 1 1.41-1.37l7.03-4a2.994 2.994 0 0 1 2.64-.16l16.64 6.9a3.006 3.006 0 0 1 1.05.73z" fill="#e6f3fc"/><path d="m30.6 4.8v14a3.02 3.02 0 0 1 -3 3h-18.02a2.975 2.975 0 0 1 -2.37-1.16l-4.97-6.38a3.984 3.984 0 0 1 -.41-4.25 3.349 3.349 0 0 1 .41-.67l4.97-6.38a3 3 0 0 1 2.37-1.16h18.02a3.009 3.009 0 0 1 3 3z" fill="#9bc9ff"/><circle cx="9.6" cy="11.801" fill="#ececf1" r="3"/><g fill="#1e81ce"><path d="m24 10.3h-6a1 1 0 0 1 0-2h6a1 1 0 0 1 0 2z"/><path d="m24 15.3h-6a1 1 0 0 1 0-2h6a1 1 0 0 1 0 2z"/><path d="m27.693 21.857h-18.022a2.979 2.979 0 0 1 -2.371-1.157l-4.963-6.387a4 4 0 0 1 0-4.912l4.963-6.385a2.978 2.978 0 0 1 2.371-1.159h18.022a3 3 0 0 1 3 3v14a3 3 0 0 1 -3 3zm-18.022-18a.994.994 0 0 0 -.789.386l-4.967 6.386a2 2 0 0 0 0 2.456l4.967 6.386a.991.991 0 0 0 .789.386h18.022a1 1 0 0 0 1-1v-14a1 1 0 0 0 -1-1z"/><path d="m23.139 30.147a2.978 2.978 0 0 1 -1.158-.235l-16.64-6.9a2.975 2.975 0 0 1 -1.747-1.987l-2.148-7.789a3.981 3.981 0 0 1 .508-3.236 1 1 0 0 1 1.672 1.1 1.971 1.971 0 0 0 -.251 1.607l2.15 7.805a.971.971 0 0 0 .57.652l16.658 6.9a.98.98 0 0 0 .761.006.992.992 0 0 0 .542-.543l1.68-4.052a1 1 0 1 1 1.848.766l-1.68 4.05a3 3 0 0 1 -2.765 1.854z"/><path d="m9.693 15.357a3.5 3.5 0 1 1 3.5-3.5 3.5 3.5 0 0 1 -3.5 3.5zm0-5a1.5 1.5 0 1 0 1.5 1.5 1.5 1.5 0 0 0 -1.5-1.5z"/></g></g></svg>