<?xml version="1.0" encoding="UTF-8"?>
<svg xmlns="http://www.w3.org/2000/svg" viewBox="0 0 64 64" width="512" height="512"><g id="blackboard-board-classroom-presentation-chalkboard"><path d="M61,9a2.015,2.015,0,0,1-2,2H5A2.006,2.006,0,0,1,3,9,2.015,2.015,0,0,1,5,7H59A2.006,2.006,0,0,1,61,9Z" style="fill:#bddbff"/><path d="M61,41a2.015,2.015,0,0,1-2,2H39L53,61H48L34,43V61H30V43L16,61H11L25,43H5a2.006,2.006,0,0,1-2-2,2.015,2.015,0,0,1,2-2H59A2.006,2.006,0,0,1,61,41Z" style="fill:#bddbff"/><path d="M60,38.18V11.82A3,3,0,0,0,59,6H35V5a3,3,0,0,0-6,0V6H5a3,3,0,0,0-1,5.82V38.18A3,3,0,0,0,5,44H8v6.18a3,3,0,1,0,2,0V44H22.96L10.21,60.39a1,1,0,0,0-.11,1.05A1.012,1.012,0,0,0,11,62h5a.985.985,0,0,0,.79-.39L29,45.91V61a1,1,0,0,0,1,1h4a1,1,0,0,0,1-1V45.91l12.21,15.7A.985.985,0,0,0,48,62h5a1.012,1.012,0,0,0,.9-.56,1,1,0,0,0-.11-1.05L41.04,44H59a3,3,0,0,0,1-5.82ZM31,5a1,1,0,0,1,2,0V6H31ZM5,8H59a1,1,0,0,1,0,2H5A1,1,0,0,1,5,8Zm53,4V38H6V12ZM9,54a1,1,0,1,1,1-1A1,1,0,0,1,9,54Zm6.51,6H13.04L25.49,44h2.47ZM33,60H31V44h2Zm17.96,0H48.49L36.04,44h2.47ZM59,42H5a1,1,0,0,1,0-2H59a1,1,0,0,1,0,2Z" style="fill:#57a4ff"/></g></svg>
