<svg id="Layer_15" height="512" viewBox="0 0 32 32" width="512" xmlns="http://www.w3.org/2000/svg" data-name="Layer 15"><path d="m3 7h24v18h-24z" fill="#ccedff"/><path d="m3 20h24a0 0 0 0 1 0 0v6.9522a2.0478 2.0478 0 0 1 -2.0478 2.0478h-19.9044a2.0478 2.0478 0 0 1 -2.0478-2.0478v-6.9522a0 0 0 0 1 0 0z" fill="#99e0ff"/><path d="m7 22h22a0 0 0 0 1 0 0v1a2 2 0 0 1 -2 2h-20a0 0 0 0 1 0 0v-3a0 0 0 0 1 0 0z" fill="#ccedff"/><path d="m5 3h20a2 2 0 0 1 2 2v2a0 0 0 0 1 0 0h-24a0 0 0 0 1 0 0v-2a2 2 0 0 1 2-2z" fill="#ccedff"/><g fill="#1aadff"><path d="m29 21h-1v-16a3.0033 3.0033 0 0 0 -3-3h-20a3.0033 3.0033 0 0 0 -3 3v22a3.0033 3.0033 0 0 0 3 3h20a3.0033 3.0033 0 0 0 3-3v-1.1843a2.9951 2.9951 0 0 0 2-2.8157v-1a.9994.9994 0 0 0 -1-1zm-24-17h20a1.001 1.001 0 0 1 1 1v1h-22v-1a1.001 1.001 0 0 1 1-1zm-1 4h22v13h-19a.9994.9994 0 0 0 -1 1v1a1 1 0 0 1 -2 0zm21 20h-20a1.0007 1.0007 0 0 1 -1-1v-1.1843a2.9649 2.9649 0 0 0 1 .1843h21v1a1.0007 1.0007 0 0 1 -1 1zm2-4h-19.1709a2.9993 2.9993 0 0 0 .1709-1h20a1.0007 1.0007 0 0 1 -1 1z"/><path d="m7 11h2v2h-2z"/><path d="m11 11h12v2h-12z"/><path d="m7 16h2v2h-2z"/><path d="m11 16h12v2h-12z"/></g></svg>