<svg height="512" viewBox="0 0 32 32" width="512" xmlns="http://www.w3.org/2000/svg"><g id="picture"><g><g><path d="m2 5h28v22h-28z" fill="#e3f2fd"/><g fill="#90caf9"><circle cx="13" cy="11" r="2"/><path d="m2 27v-6l4.5898438-4.5898438c.349121-.349121.8627929-.5493164 1.4101562-.5493164s1.0610352.2001953 1.409668.5493164l3.1801758 3.1796875c.3530273.3535156.8261719.5483398 1.331543.5483398.5400391 0 1.0537109-.2290039 1.4086914-.628418l5.3398438-6.0195313c.3378906-.3798828.8476563-.5986328 1.3974609-.5986328.5136719 0 .9990234.1962891 1.3330078.5385742l6.5996093 6.7299807v6.8398437z"/></g></g><path d="m13 14c1.6542969 0 3-1.3457031 3-3s-1.3457031-3-3-3-3 1.3457031-3 3 1.3457031 3 3 3zm0-4c.5512695 0 1 .4487305 1 1s-.4487305 1-1 1-1-.4487305-1-1 .4487305-1 1-1zm-12-6v24h30v-24zm28 2v11.7167969l-4.8857422-4.987793c-.5683594-.5800781-1.3642578-.9150391-2.1162109-.8696289-.7978516.019043-1.5341797.3632813-2.0742188.9707031l-5.3427734 6.0107422c-.168457.1899414-.394043.2978516-.6357422.3051758-.2402344-.0019531-.4726563-.0878906-.6523438-.2670898l-3.171875-3.171875c-1.1298828-1.1298828-3.1123047-1.1298828-4.2421875 0l-2.8789062 2.8789062v-12.5859375zm-26 20v-4.5859375l4.2929688-4.2929688c.375-.3740234 1.0390625-.3740234 1.4140625 0l3.171875 3.171875c.5727539.5727539 1.3349609.8759766 2.1254883.8520508.7978516-.0234375 1.5332031-.3696289 2.0717773-.9750977l5.3417969-6.0102539c.1679688-.1884766.390625-.2954102.6269531-.3012695.2324219-.0029297.4638672.0898438.6396484.2700195l6.3154297 6.4472657v5.4243164z" fill="#42a5f5"/></g></g></svg>