<svg id="Слой_1" enable-background="new 0 0 2004.08 2004.08" height="512" viewBox="0 0 2004.08 2004.08" width="512" xmlns="http://www.w3.org/2000/svg"><g id="Слой_1_1_"><path d="m929.92 1847.84c-.88 0-1.77-.05-2.66-.14-13.53-1.45-23.32-13.6-21.87-27.13 7.49-69.72 27.64-134.12 59.89-191.41 32.23-57.25 65.68-87.84 116.3-134.15 25.3-23.14 53.96-49.36 90.11-85.53 52.98-53.02 73.81-79.24 92.19-102.37 15.57-19.6 29.37-36.97 57.78-64.89-44.55-44.49-73.98-87.49-102.86-129.67-40.27-58.83-78.31-114.39-156.32-173.5-158.25-119.92-403.02-200.6-593.14-110.51-73.15 34.66-134.97 92.44-183.73 171.72-7.13 11.59-22.31 15.2-33.9 8.08-11.59-7.13-15.21-22.31-8.08-33.9 53.85-87.54 122.68-151.62 204.6-190.44 208.79-98.93 473.89-13.14 644.01 115.76 84.38 63.95 126.49 125.46 167.22 184.94 28.6 41.78 56.29 82.22 97.95 123.64 109.67-102.49 191.35-174.74 292.45-160.1 89.03 12.89 185.05 86.62 191.64 187.68 4.64 71.23-36.88 145.71-98.73 177.1-37.43 18.99-125.07 35.24-291.51-69.34-36.79-23.12-67.33-45.76-93.35-68-27.37 26.73-40.03 42.67-55.44 62.07-19.19 24.17-40.95 51.55-95.92 106.55-36.93 36.95-67.3 64.73-91.71 87.06-48.8 44.63-78.26 71.57-106.62 121.96-28.95 51.43-47.06 109.46-53.83 172.49-1.35 12.66-12.04 22.03-24.47 22.03zm464.01-606.16c23.43 19.67 50.78 39.69 83.56 60.29 155.56 97.75 225.31 76.09 242.98 67.12 44.33-22.49 75.22-78.36 71.85-129.95-4.9-75.11-81.43-132.25-149.53-142.11-77.63-11.27-147.37 49.86-248.86 144.65z" fill="#595959"/><path d="m478.57 380.45-68.8 348.88c-12.97 37.75 15.58 76.89 55.49 76.07l44.2-.92c39.91-.83 66.82-41.12 52.29-78.3z" fill="#999"/><path d="m372.44 645.38c-12.3.26-24.59-3.34-35.18-10.71-18.75-13.04-28.29-35.17-24.9-57.76l12.11-80.58c.6-4.02.22-8.16-1.12-12-1.33-3.83-3.61-7.32-6.57-10.1l-59.51-55.65c-16.68-15.6-22.94-38.87-16.33-60.73s24.71-37.77 47.23-41.53l80.38-13.38c4-.67 7.83-2.32 11.06-4.77s5.85-5.69 7.57-9.37l34.54-73.8c9.68-20.68 29.88-33.83 52.71-34.3s43.56 11.82 54.09 32.09l37.57 72.3c1.87 3.6 4.62 6.73 7.95 9.05s7.23 3.81 11.25 4.31l80.86 10.04c22.66 2.82 41.41 17.97 48.91 39.54 7.51 21.57 2.22 45.08-13.8 61.36l-57.16 58.07c-2.85 2.89-4.97 6.48-6.15 10.36-1.17 3.88-1.39 8.04-.62 12.03l15.43 80.01c4.33 22.42-4.29 44.93-22.48 58.74-18.2 13.8-42.19 16.04-62.62 5.83l-72.89-36.42c-7.27-3.63-16.29-3.44-23.39.48l-71.32 39.4c-8.69 4.81-18.16 7.29-27.62 7.49zm49.88-391.06h.03z" fill="#ffe5ba"/><path d="m1333.1 615.22-281.52 217.25c-34.62 19.87-38.91 68.13-8.33 93.79l33.87 28.42c30.58 25.66 77.36 13.06 90.92-24.49z" fill="#999"/><path d="m1105.9 726.43c-9.42-7.91-16.3-18.71-19.42-31.23-5.52-22.16 1.87-45.1 19.3-59.86l62.18-52.67c3.1-2.62 5.54-6 7.06-9.77 1.52-3.76 2.11-7.89 1.7-11.92l-8.14-81.08c-2.28-22.72 8.33-44.36 27.7-56.46s43.47-12.16 62.89-.15l69.3 42.86c3.45 2.13 7.42 3.41 11.47 3.7 4.05.28 8.15-.43 11.87-2.06l74.59-32.79c20.9-9.19 44.76-5.78 62.26 8.9s25 37.58 19.57 59.77l-19.34 79.15c-.97 3.94-.96 8.11.03 12.04.98 3.94 2.93 7.63 5.63 10.65l54.24 60.81c15.2 17.04 19.33 40.79 10.78 61.96-8.56 21.18-28.02 35.39-50.8 37.09l-81.26 6.06c-4.05.3-8.01 1.6-11.45 3.75s-6.34 5.14-8.38 8.64l-41.07 70.38c-11.51 19.73-32.81 30.99-55.6 29.4-22.78-1.6-42.31-15.72-50.96-36.85l-30.88-75.41c-3.08-7.52-9.99-13.31-17.92-15.04l-79.62-17.32c-9.72-2.1-18.48-6.46-25.73-12.55z" fill="#78e5ff"/><path d="m738.52 1273.56 165.07 314.96c13.55 37.55 60.34 50.15 90.91 24.49l33.87-28.42c30.58-25.66 26.29-73.92-8.33-93.79z" fill="#999"/><path d="m801.66 1522.43c-9.42 7.91-21.25 12.8-34.13 13.7-22.78 1.59-44.09-9.67-55.6-29.4l-41.07-70.38c-2.05-3.51-4.95-6.5-8.39-8.65s-7.4-3.45-11.45-3.75l-81.26-6.06c-22.78-1.7-42.24-15.91-50.79-37.08-8.55-21.18-4.43-44.92 10.78-61.96l54.24-60.81c2.7-3.03 4.65-6.71 5.63-10.65s.99-8.1.03-12.05l-19.34-79.16c-5.42-22.18 2.08-45.08 19.57-59.77 17.5-14.68 41.35-18.09 62.26-8.9l74.59 32.79c3.72 1.64 7.82 2.35 11.87 2.07s8.02-1.56 11.47-3.7l69.3-42.86c19.42-12.01 43.52-11.95 62.89.15s29.98 33.74 27.7 56.46l-8.14 81.07c-.41 4.04.18 8.17 1.71 11.93 1.52 3.76 3.96 7.14 7.06 9.76l62.17 52.67c17.43 14.76 24.82 37.7 19.3 59.86-5.53 22.16-22.83 38.94-45.14 43.79l-79.62 17.31c-7.94 1.73-14.85 7.53-17.92 15.04l-30.88 75.41c-3.76 9.22-9.58 17.09-16.84 23.17z" fill="#ff8b9d"/></g></svg>