<svg id="Capa_1" enable-background="new 0 0 512 512" height="512" viewBox="0 0 512 512" width="512" xmlns="http://www.w3.org/2000/svg"><g><g><g><g><g><g><g><circle cx="256" cy="256" fill="#00c8c8" r="256"/></g></g></g></g></g></g><path d="m512 256c0-8.081-.375-16.075-1.107-23.965l-117.132-117.132-13.51 42.146-78.966-79.74-221.245 220.058 74.081 73.186-35.882 19.872 121.038 121.038c5.528.356 11.104.537 16.723.537 141.385 0 256-114.615 256-256z" fill="#1cadb5"/><g><g><path d="m256 57.841c-34.465 0-62.404 27.939-62.404 62.404s27.939 62.404 62.404 62.404c.449 0 .892-.024 1.339-.034l10.282-56.144-10-66.055c-.729-2.551-1.172-2.575-1.621-2.575z" fill="#fff"/></g><g><path d="m318.404 120.245c0 34.465-27.939 62.404-62.404 62.404v-124.808c34.465 0 62.404 27.939 62.404 62.404z" fill="#e9edf5"/></g><g><path d="m256 322.678c-34.465 0-62.404 27.939-62.404 62.404s27.939 62.404 62.404 62.404c.449 0 .892-.024 2.845-2.857l10-57.833-11.506-64.084c-.447-.009-.89-.034-1.339-.034z" fill="#fff"/></g><g><path d="m318.404 385.083c0 34.465-27.939 62.404-62.404 62.404v-124.809c34.465 0 62.404 27.94 62.404 62.405z" fill="#e9edf5"/></g></g><g><g><ellipse cx="388.419" cy="252.664" fill="#e9edf5" rx="62.404" ry="62.404" transform="matrix(.973 -.23 .23 .973 -47.66 96)"/></g><g><ellipse cx="123.581" cy="252.664" fill="#fff" rx="62.404" ry="62.404" transform="matrix(.286 -.958 .958 .286 -153.873 298.819)"/></g></g><g><g><ellipse cx="349.634" cy="159.03" fill="#cdd2e1" rx="62.404" ry="62.404" transform="matrix(.707 -.707 .707 .707 -10.045 293.808)"/></g><g><circle cx="162.366" cy="346.298" fill="#e9edf5" r="62.404"/></g></g><g><g><ellipse cx="349.634" cy="346.298" fill="#cdd2e1" rx="62.404" ry="62.404" transform="matrix(.383 -.924 .924 .383 -104.103 536.796)"/></g><g><ellipse cx="162.366" cy="159.03" fill="#e9edf5" rx="62.404" ry="62.404" transform="matrix(.598 -.802 .802 .598 -62.187 194.09)"/></g></g><g><path d="m256 146.779c-58.479 0-105.885 47.406-105.885 105.885s47.406 105.885 105.885 105.885c.448 0 .893-.011 1.339-.017l10-102.531-10-109.204c-.446-.006-.891-.018-1.339-.018z" fill="#ffce00"/></g><g><path d="m361.885 252.664c0 58.479-47.406 105.885-105.885 105.885v-211.77c58.479 0 105.885 47.406 105.885 105.885z" fill="#fdba12"/></g><g><g><g><ellipse cx="205.569" cy="211.744" fill="#636978" rx="13.903" ry="13.903" transform="matrix(.23 -.973 .973 .23 -47.741 363.165)"/></g><g><ellipse cx="305.669" cy="211.744" fill="#414952" rx="13.903" ry="13.903" transform="matrix(.16 -.987 .987 .16 47.696 479.548)"/></g></g><g><path d="m212.866 240.013c0 23.803 19.296 43.099 43.099 43.099.461 0 .917-.021 1.374-.035l4.661-22.922-4.661-20.142z" fill="#ff73a5"/></g><g><path d="m299.063 240.013c0 23.803-19.296 43.099-43.099 43.099v-43.099z" fill="#ff468c"/></g></g></g></svg>