<svg id="Layer_1" enable-background="new 0 0 480 480" height="512" viewBox="0 0 480 480" width="512" xmlns="http://www.w3.org/2000/svg"><path d="m447 129v-26h9c8.837 0 16-7.164 16-16v-5.29c0-7.26-4.89-13.61-11.91-15.47l-218.042-57.699c-1.341-.355-2.755-.355-4.096 0l-218.042 57.699c-7.02 1.86-11.91 8.21-11.91 15.47v5.29c0 8.836 7.163 16 16 16h9v26c0 8.84 7.16 16 16 16h8.36l-8.36 241h-5c-8.84 0-16 7.16-16 16v28h-4c-8.837 0-16 7.164-16 16v18c0 4.418 3.582 8 8 8h448c4.418 0 8-3.582 8-8v-18c0-8.836-7.163-16-16-16h-4v-28c0-8.84-7.16-16-16-16h-5l-8.36-241h8.36c8.84 0 16-7.16 16-16zm-172.977 16-8.353 241h-51.34l-8.35-241zm-177.383 0h70.052l-8.36 241h-53.332zm225.03 241-8.36-241h70.05l-8.36 241z" fill="#d1e7ff"/><path d="m77.36 145-8.36 241h-20l8.36-241z" fill="#e8f3ff"/><path d="m186.695 145-8.36 241h-20.003l8.36-241z" fill="#eef7ff"/><path d="m294.03 145-8.36 241h-20l8.353-241z" fill="#eef7ff"/><path d="m403.36 145-8.36 241h-20l8.36-241z" fill="#eef7ff"/><path d="m242.048 8.541c12.733 3.348 12.73 21.432.002 24.8l-197.28 52.209c-7.607 2.015-10.879 7.202-12.292 11.401-3.891 11.564-24.478 5.575-24.478-9.951v-5.29c0-7.26 4.89-13.61 11.91-15.47l218.042-57.699c1.34-.35 2.757-.353 4.096 0z" fill="#e8f3ff"/><path d="m67.776 145h-18.776c-8.837 0-16-7.163-16-16v-26h50s.001 26.177.002 26.264c.135 8.611-6.614 15.736-15.226 15.736z" fill="#e8f3ff"/><g fill="#b9dcff"><path d="m447 103v8c0 4.418-3.582 8-8 8h-398c-4.418 0-8-3.582-8-8v-8z"/><path d="m414.915 161h-23.83c-4.528 0-8.154-3.755-7.995-8.28l.27-7.72h39.28l.27 7.72c.159 4.525-3.467 8.28-7.995 8.28z"/><path d="m305.585 161h-23.835c-4.526 0-8.151-3.751-7.995-8.275l.269-7.725h39.287l.27 7.72c.158 4.525-3.468 8.28-7.996 8.28z"/><path d="m198.25 161h-23.835c-4.528 0-8.153-3.755-7.995-8.28l.272-7.72h39.288l.266 7.725c.155 4.523-3.47 8.275-7.996 8.275z"/><path d="m88.915 161h-23.83c-4.528 0-8.153-3.755-7.995-8.28l.27-7.72h39.28l.27 7.72c.159 4.525-3.467 8.28-7.995 8.28z"/><path d="m431 386h-56l.29-8.28c.151-4.307 3.686-7.72 7.995-7.72h39.43c4.309 0 7.844 3.413 7.995 7.72z"/><path d="m321.67 386h-56l.284-8.275c.148-4.309 3.684-7.725 7.995-7.725h39.435c4.309 0 7.844 3.413 7.995 7.72z"/><path d="m214.33 386h-55.998l.288-8.28c.151-4.307 3.686-7.72 7.995-7.72h39.435c4.311 0 7.847 3.416 7.995 7.725z"/><path d="m105 386h-56l.29-8.28c.151-4.307 3.686-7.72 7.995-7.72h39.43c4.309 0 7.844 3.413 7.995 7.72z"/></g><path d="m436.086 406c-62.732 0-298.341 0-362.094 0-8.837 0-15.992 7.163-15.992 16v8h-30v-28c0-8.837 7.163-16 16-16h392c13.923 0 13.009 20 .086 20z" fill="#e8f3ff"/><path d="m456.359 444h-407.359c-8.837 0-16 7.163-16 16v5c0 3.866-3.134 7-7 7h-10c-4.418 0-8-3.582-8-8v-18c0-8.837 7.163-16 16-16 0 0 432.678.011 433.012.031 8.89.555 8.254 13.969-.653 13.969z" fill="#e8f3ff"/><g><path d="m391.086 153h39.914c13.234 0 24-10.766 24-24v-18h1c13.233 0 24-10.767 24-24v-5.289c0-10.878-7.344-20.418-17.86-23.202l-220.094-58.243c-1.341-.354-2.752-.354-4.093 0l-220.093 58.244c-10.516 2.783-17.86 12.323-17.86 23.201v5.289c0 12.316 9.497 24 25 24v18c0 13.233 10.766 24 24 24 .119 0 .449-10.739-7.733 225.16-11.95 1.362-21.267 11.531-21.267 23.84v20.34c-11.335 1.91-20 11.79-20 23.66v26c0 4.418 3.582 8 8 8h464c4.418 0 8-3.582 8-8v-26c0-11.87-8.665-21.75-20-23.66v-20.34c0-12.309-9.316-22.479-21.267-23.84l-6.789-195.75c-.153-4.416-3.857-7.893-8.272-7.718-4.416.153-7.871 3.857-7.718 8.272l6.764 195.036h-39.436zm-302.172 0 6.311 181.954c.15 4.321 3.7 7.723 7.99 7.723 4.541 0 8.157-3.761 8-8.277-7.059-203.424-6.49-190.135-6.862-191.501-.544-2-1.842-3.702-3.632-4.771-2.67-1.589-1.971-1.128-51.721-1.128-4.411 0-8-3.589-8-8v-18h362.581c4.418 0 8-3.582 8-8s-3.582-8-8-8h-379.581c-4.411 0-8-3.589-8-8v-5.289c0-3.626 2.448-6.806 5.953-7.734l218.047-57.702 218.046 57.702c3.505.928 5.954 4.108 5.954 7.734v5.289c0 4.411-3.589 8-8 8h-9c-4.418 0-8 3.582-8 8v26c0 4.411-3.589 8-8 8h-289.613c-4.418 0-8 3.582-8 8s3.582 8 8 8h56.861l7.804 225h-39.436l6.313-182.02c.153-4.416-3.302-8.12-7.718-8.272-4.425-.17-8.12 3.303-8.272 7.718l-6.333 182.574h-93.324l7.804-225zm133.147 225-7.804-225h51.485l-7.804 225zm221.939 24v20h-370.613c-4.418 0-8 3.582-8 8s3.582 8 8 8h382.613c4.411 0 8 3.589 8 8v18h-448v-18c0-4.411 3.589-8 8-8h4c4.418 0 8-3.582 8-8v-28c0-4.411 3.589-8 8-8h283.709c4.418 0 8-3.582 8-8s-3.582-8-8-8h-53.761l7.804-225h23.829l6.731 194.072c.15 4.321 3.7 7.723 7.99 7.723 4.541 0 8.157-3.761 8-8.277l-6.711-193.518h53.485c-.015.448-8.076 232.79-8.076 233 0 3.23 1.988 6.248 5.122 7.458 2.009.774-1.875.542 63.878.542 4.411 0 8 3.589 8 8z" fill="#2e58ff"/></g></svg>