<svg id="Capa_1" enable-background="new 0 0 512 512" height="512" viewBox="0 0 512 512" width="512" xmlns="http://www.w3.org/2000/svg"><path d="m327.621 92.115-263.717 263.717 92.263 92.264 264.514-264.514z" fill="#fed330"/><path d="m344.149 75.586 56.509-56.508c25.437-25.438 66.827-25.438 92.264 0 25.438 25.437 25.438 66.827 0 92.264l-56.509 56.509z" fill="#00d7df"/><path d="m0 512 63.903-156.168 92.264 92.264z" fill="#fbced3"/><path d="m110.036 401.964 46.131 46.132 264.514-264.513-46.53-45.734z" fill="#f8b233"/><path d="m0 512 156.167-63.904-46.132-46.131z" fill="#f6b5b4"/><path d="m390.281 121.719 46.132 46.132 56.509-56.509c25.438-25.437 25.438-66.827 0-92.264z" fill="#00b2cc"/><path d="m357.623 122.117-263.718 263.717 32.26 32.261 264.514-264.514z" fill="#fee46f"/><path d="m110.036 401.964 16.129 16.13 264.514-264.513-16.528-15.732z" fill="#fed330"/><path d="m306.468 113.268 40.211-40.21 92.264 92.264-40.211 40.211z" fill="#e8f7ff"/><path d="m367.338 129.741h56.867v65.24h-56.867z" fill="#bcdbfd" transform="matrix(.707 -.707 .707 .707 1.112 327.406)"/><path d="m0 512 59.747-24.448-35.299-35.299z" fill="#00d7df"/><path d="m59.747 487.552-17.649-17.65-42.098 42.098z" fill="#00b2cc"/></svg>