<svg clip-rule="evenodd" fill-rule="evenodd" height="512" image-rendering="optimizeQuality" shape-rendering="geometricPrecision" text-rendering="geometricPrecision" viewBox="0 0 1.70666 1.70666" width="512" xmlns="http://www.w3.org/2000/svg"><g id="Layer_x0020_1"><g id="_348072984"><g><path id="_348074304" d="m.547213 1.56713c-.00261024 0-.00526378-.00051181-.00777953-.00158268-.0075-.00316535-.0123346-.0105669-.0122087-.0187087l.00155118-.110496-.110492.00155512c-.00009843.00001575-.00019291.00001575-.00029528.00001575-.00530709 0-.0103858-.00211024-.0141339-.0058622-.00382283-.00382283-.00593307-.00901575-.00586614-.0144331l.00155512-.110492-.110508.00154331c-.00008661.00001575-.0001811.00001575-.00027953.00001575-.00530709 0-.0103898-.00211024-.0141378-.0058622-.0038189-.00382283-.00592913-.0090315-.0058622-.0144331l.00155512-.110492-.110496.00154331c-.00008268.00001575-.00017717.00001575-.00027559.00001575-.00802756 0-.0152913-.0048189-.0184331-.0122205-.00316535-.0075-.0014685-.0161654.00429528-.0219291l.854614-.854618c.00782283-.0078189.0204882-.0078189.0282953 0l.387661.387665c.00374803.00374803.00586614.00883465.00586614.0141339 0 .00530315-.00211024.0103898-.00586614.0141378l-.85463.85463c-.00381496.00383465-.0089252.00587402-.0141299.00587402zm.00184252-.171091c.00530709 0 .0103858.00211024.0141339.00586614.00382283.0038189.00593307.00901181.00586614.0144291l-.00115748.0818189.805665-.80565-.35939-.35939-.805646.805646.0818189-.0011378c.00520472-.00076772.0105984.00202362.0144134.00584646.00382283.00382283.00593307.00902756.0058622.0144291l-.00155118.110496.110492-.00154331c.00008268-.00001575.00017717-.00001575.00027953-.00001575.00530709 0 .0103858.00211024.0141339.0058622.00382283.00382283.00593307.00901181.00586614.0144291l-.00155512.110496.110492-.00155512c.00007874-.00002756.0001811-.00002756.00027559-.00002756z"/></g><g><path id="_348074352" d="m.0200354 1.70662c-.00523228 0-.0103465-.00205512-.0141339-.0058622-.00503937-.00503937-.00701181-.0123898-.00519685-.0192638l.139504-.527177c.00229528-.0086811.0100866-.0147638.0190551-.014874l.131067-.00185039c.00520472-.00076378.0105984.00202756.0144134.00585039.00382283.0038189.00593307.00902756.0058622.0144291l-.00155118.110492.110492-.00154331c.00008268-.00001575.00017717-.00001575.00027953-.00001575.00530709 0 .0103858.00211024.0141339.00586614.00382283.0038189.00593307.00901181.00586614.0144291l-.00155512.110492.110492-.00155118c.00550394-.00047244.0106102.00202362.0144331.00584646.0038189.00382283.00592913.00901181.0058622.0144291l-.00183071.131075c-.00012598.00897244-.0062126.016752-.0148898.0190394l-.527173.139508c-.00169685.00046063-.00342126.0006811-.00512992.0006811zm.154965-.527378-.126827.479256.479256-.126831.00133071-.0953307-.110492.00155512c-.00009843.00001575-.00019291.00001575-.00029528.00001575-.00530709 0-.0103858-.00211024-.0141339-.0058622-.00382283-.00382283-.00593307-.00901575-.00586614-.0144331l.00155512-.110492-.110508.00154331c-.00008661.00001575-.0001811.00001575-.00027953.00001575-.00530709 0-.0103898-.00211024-.0141378-.0058622-.0038189-.00382283-.00592913-.0090315-.0058622-.0144331l.00155512-.110492-.0952953.00135039z"/></g><g><path id="_348073968" d="m.310362 1.62979c-.00512598 0-.0102362-.00195669-.0141378-.0058622l-.213492-.213476c-.00782283-.00782283-.00782283-.0204882 0-.0282953.00780709-.0078189.0204724-.0078189.0282756 0l.213492.213476c.00782283.00782283.00782283.0204882 0 .0282953-.00390945.00392126-.0090315.0058622-.0141378.0058622z"/></g><g><path id="_348074280" d="m1.40184.712484c-.00530709 0-.0103858-.00211024-.0141496-.0058622l-.387654-.387665c-.00782283-.00780315-.00782283-.0204724 0-.0282756l.129217-.12922c.00751181-.0075.0207756-.0075.0282953 0l.387661.387665c.00782283.00780709.00782283.0204724 0 .0282795l-.129217.129217c-.00376378.00376378-.00885039.0058622-.0141535.0058622zm-.35939-.407669.359386.359378.100941-.100941-.359386-.359378z"/></g><g><path id="_348074160" d="m1.53106.583268c-.00511024 0-.0102362-.00196063-.0141496-.0058622l-.387665-.387665c-.0078189-.00780709-.0078189-.0204724 0-.0282795l.110134-.11013c.0330787-.0330787.0772283-.0512874.124287-.0512874.0470591 0 .0911929.0182165.124272.0512874l.167413.167409c.0330669.0330709.0512717.0772047.0512717.124276 0 .0470669-.0182205.0911929-.0512717.124272l-.11015.110134c-.00390551.00389764-.00902756.00584646-.0141417.00584646zm-.359386-.407665.359386.359378.0959961-.0959961c.0255276-.0255118.0395866-.0596102.0395866-.0959961 0-.0363858-.0140591-.0704685-.0395866-.0959961l-.167406-.167386c-.0255079-.0255079-.0596063-.0395827-.0959803-.0395827-.0363858 0-.0704685.0140591-.0959961.0395827l-.096.0959961z"/></g><g><path id="_348073440" d="m.419843 1.30683c-.00512205 0-.0102362-.00196063-.0141378-.00586614-.0078189-.0078189-.0078189-.0204843 0-.0282913l.788161-.788161c.00782283-.00782283.0204882-.00782283.0282953 0 .0078189.00780315.0078189.0204724 0 .0282756l-.788177.788177c-.00390551.00392126-.00903543.00586614-.0141417.00586614z"/></g><g><path id="_348073176" d="m.290606 1.17761c-.00512205 0-.0102323-.00195669-.0141339-.0058622-.00782283-.00782283-.00782283-.0204882 0-.0282913l.788161-.788165c.00782283-.0078189.0204882-.0078189.0282953 0 .0078189.00780709.0078189.0204724 0 .0282795l-.788181.788181c-.00388976.00390157-.00901575.00585827-.0141417.00585827z"/></g><g><path id="_348073368" d="m.549055 1.43605c-.00512205 0-.0102362-.00195669-.0141378-.0058622-.0078189-.00782283-.0078189-.0204882 0-.0282953l.788161-.788161c.00782283-.0078189.0204882-.0078189.0282953 0 .0078189.00780709.0078189.0204724 0 .0282795l-.788177.788177c-.00390551.00390551-.0090315.0058622-.0141417.0058622z"/></g><g><path id="_348073488" d="m1.29179 1.70662h-1.27176c-.0110394 0-.0199961-.0089685-.0199961-.02 0-.0110276.00895669-.0199961.0199961-.0199961h1.27176c.0110394 0 .02.0089685.02.0199961 0 .0110315-.00896063.02-.02.02z"/></g><g><path id="_348073464" d="m1.40184.712484c-.00511024 0-.0102362-.00195669-.0141496-.0058622l-.387654-.387665c-.00782283-.00780315-.00782283-.0204724 0-.0282756l.0645945-.0646063c.00751181-.0075.0207756-.0075.0282953 0l.387677.387677c.00374803.00374803.0058622.00883465.0058622.0141378s-.00211024.0103898-.0058622.0141378l-.0646063.0646063c-.00392126.00390157-.00904724.00585039-.0141575.00585039zm-.35939-.407669.359386.35939.0363346-.0363189-.359402-.35939-.0363189.0363189z"/></g></g><path d="m.271654 1.59936-.164343-.16433-.0591378.22347z" fill="#666"/><path d="m.11915 1.3903.197236.19722.211043-.0558504.00133071-.0953307-.110492.00155512-.00029528.00001575c-.00530709 0-.0103858-.00211024-.0141339-.0058622-.00382283-.00382283-.00593307-.00901575-.00586614-.0144331l.00155512-.110492-.110508.00154331-.00027953.00001575c-.00530709 0-.0103898-.00211024-.0141378-.0058622-.0038189-.00382283-.00592913-.0090315-.0058622-.0144331l.00155512-.110492-.0952953.00135039-.0558504.211055z" fill="#f7cf9c"/><path d="m.282201 1.13773.768299-.768297-.03633-.036323-.805642.80565z" fill="#ffcb4f"/><path d="m1.07879.397713-.768282.768287-.001437.10239.10235-.00143.768299-.768303z" fill="#ffb70d"/><path d="m1.20802.526937-.768292.768283-.001441.1024.102347-.00144.768306-.768306z" fill="#ffcb4f"/><path d="m1.33723.656157-.768285.768283-.001047.07371.805662-.80565z" fill="#ffb70d"/><path d="m1.22272.485098.128094.128098c.0000748.00006693.00014567.00013386.00021654.00020472.00011417.0001063.00022835.00021654.00033858.00033071.00011417.00011417.00022441.00022441.00033071.00033858.00006693.00006693.00012992.0001378.00019291.00020472l.0499409.0499173.0363346-.0363071-.359402-.35939-.0363189.0363189.0501102.050122c.00012205.00011811.00024409.00023622.00036614.00035827s.00024016.00024409.00035827.00036614l.128291.128291c.00006299.00005906.00012205.00011811.00018504.00017717.00013386.00012598.00026772.00025591.00039764.00038583s.00025984.00026378.00038583.00039764l.00017717.00018504z" fill="#e6e6e6"/><path d="m1.10706.240205.35938.359382.03634-.036335-.35939-.359378z" fill="#e6e6e6"/><path d="m1.17167.175602.359386.359378.0959961-.0959961c.0255276-.0255118.0395866-.0596102.0395866-.0959961 0-.0363858-.0140591-.0704685-.0395866-.0959961l-.167406-.167386c-.0255079-.0255079-.0596063-.0395827-.0959803-.0395827-.0363858 0-.0704685.0140591-.0959961.0395827l-.096.0959961z" fill="#f94a46"/></g></svg>