<svg id="Layer_1" enable-background="new 0 0 480.059 480.059" height="512" viewBox="0 0 480.059 480.059" width="512" xmlns="http://www.w3.org/2000/svg"><path d="m386.727 118.631c18.06 2.62 25.27 24.81 12.2 37.55l-63.35 61.75 14.96 87.19c3.08 17.99-15.8 31.71-31.95 23.21l-78.3-41.16-78.31 41.16c-16.15 8.5-35.03-5.22-31.94-23.21l14.95-87.19-63.35-61.75c-13.07-12.74-5.86-34.93 12.2-37.55l87.55-12.73 39.15-79.33c8.08-16.36 31.41-16.36 39.49 0l39.15 79.33z" fill="#d1e7ff"/><path d="m263.017 32.62c-2.687 3.439-.836 1-41.63 83.28l-87.55 12.73c-18.06 2.62-25.27 24.81-12.2 37.55l63.35 61.75-14.95 87.19c-.53 3.109-.41 6.09.24 8.85l-8.3 4.36c-16.15 8.5-35.03-5.221-31.94-23.21l14.95-87.19-63.35-61.75c-13.07-12.74-5.86-34.93 12.2-37.55l87.55-12.73 39.15-79.33c8.08-16.36 31.41-16.36 39.49 0z" fill="#e8f3ff"/><path d="m468.197 411.48c-15.58-18.39-36.73-31.35-60.36-36.819v-25.21c0-12.33-9.33-22.61-21.57-23.881-97.22-10.119-195.23-10.119-292.47 0-12.25 1.271-21.57 11.551-21.57 23.881v25.21c-23.64 5.47-44.78 18.43-60.36 36.819-7.01 8.28-4.1 20.96 5.88 25.19l22.14 9.37 4.8 10.39c5.21 11.29 20.82 12.62 27.71 2.28 9.914-14.842 23.485-27.096 39.573-35.416 84.812-7.747 171.059-7.76 256.103-.006 16.103 8.32 29.668 20.566 39.585 35.422 6.9 10.34 22.5 9.01 27.72-2.28l4.8-10.39 22.14-9.37c9.979-4.23 12.889-16.909 5.879-25.19z" fill="#b9dcff"/><g fill="#d1e7ff"><path d="m467.197 433.451c-.54-1.04-1.2-2.03-2-2.971-14.92-17.609-34.94-30.239-57.36-36.069v-19.75c23.63 5.47 44.78 18.43 60.36 36.819 5.69 6.721 4.85 16.321-1 21.971z"/><path d="m406.867 342.69c-90.85-8.199-182.29-7.569-273.07 1.88-12.25 1.271-21.58 11.551-21.57 23.881.044 52.559-.219 51.545.26 54.79-4.63.409-9.26.85-13.88 1.319-14.12 1.42-26.38-9.66-26.38-23.87v-51.239c0-12.33 9.32-22.61 21.57-23.881 97.24-10.119 195.25-10.119 292.47 0 9.92 1.03 17.92 7.971 20.6 17.12z"/><path d="m72.227 374.661v18.229c-15.92 6.83-30.09 17.29-41.36 30.59-4.47 5.28-4.91 12.351-2.04 17.88l-11.08-4.689c-9.98-4.23-12.89-16.91-5.88-25.19 15.58-18.39 36.72-31.35 60.36-36.82z"/></g><path d="m423.837 379.65v21.03c0 19.061-13.465 35.482-32.19 39.21-7.02-6.54-14.94-12.14-23.59-16.609 5.114.446 8.547.789 13.37 1.27 14.13 1.42 26.41-9.65 26.41-23.87v-26.02c5.48 1.269 10.82 2.939 16 4.989z" fill="#a2d0ff"/><path d="m111.997 423.281c-8.65 4.47-16.57 10.069-23.59 16.619-18.594-3.686-32.18-20.023-32.18-39.21v-21.04c5.17-2.05 10.52-3.72 16-4.989v26.029c0 14.21 12.26 25.29 26.38 23.87 12.278-1.223 12.265-1.157 13.39-1.279z" fill="#a2d0ff"/><g><path d="m474.299 406.309c-8.321-9.819-18.109-18.2-29.093-24.911-3.771-2.302-8.693-1.113-10.998 2.656-2.303 3.771-1.114 8.694 2.656 10.998 9.524 5.818 18.012 13.086 25.228 21.601 3.548 4.187 2.087 10.536-2.898 12.647l-22.138 9.376c-1.831.775-3.308 2.205-4.143 4.011l-4.801 10.392c-2.591 5.608-10.365 6.344-13.8 1.195-5.768-8.646-12.701-16.442-20.536-23.188 13.364-4.366 22.059-16.78 22.059-30.401v-51.236c0-16.447-12.358-30.135-28.745-31.839-9.594-.998-19.202-1.895-28.821-2.696.73-3.603.797-7.363.149-11.141l-14.244-83.048 60.338-58.814c17.811-17.362 7.968-47.623-16.636-51.201l-83.386-12.116-37.29-75.56c-11.01-22.304-42.833-22.295-53.836.001l-37.291 75.559-83.385 12.116c-24.615 3.579-34.439 33.847-16.635 51.201l60.338 58.814-11.404 66.488c-.747 4.354 2.178 8.49 6.532 9.237 4.357.737 8.49-2.178 9.237-6.532l12.115-70.634c.445-2.596-.415-5.243-2.301-7.081l-63.35-61.75c-8.328-8.119-3.763-22.233 7.769-23.91l87.547-12.721c2.605-.379 4.858-2.016 6.023-4.376l39.152-79.332c5.147-10.429 19.983-10.449 25.141 0l39.151 79.331c1.165 2.361 3.418 3.998 6.023 4.377l87.548 12.721c11.512 1.674 16.111 15.777 7.769 23.91l-63.35 61.75c-1.886 1.838-2.746 4.485-2.301 7.081l14.955 87.192c.487 2.844.115 5.241-.594 7.177-42.718-3.069-85.617-4.205-128.47-3.41l26.698-14.036 15.114 7.945c3.913 2.06 8.748.553 10.804-3.358s.553-8.748-3.358-10.804l-18.837-9.902c-2.331-1.225-5.116-1.225-7.445 0l-59.543 31.304c-28.086 1.242-56.124 3.313-84.049 6.218-16.387 1.704-28.745 15.392-28.745 31.839v19.05c-22.629 6.555-43.208 19.808-58.463 37.812-10.549 12.451-6.036 31.414 8.865 37.724l19.292 8.171 3.504 7.585c7.857 17.008 31.279 18.887 41.635 3.365 2.862-4.29 6.086-8.385 9.582-12.168 2.998-3.245 2.797-8.307-.448-11.305-3.245-2.999-8.306-2.799-11.305.447-4.063 4.399-7.811 9.158-11.139 14.146-3.42 5.127-11.197 4.437-13.8-1.196l-4.801-10.391c-.834-1.806-2.311-3.235-4.142-4.011l-22.138-9.376c-4.98-2.109-6.449-8.456-2.898-12.647 12.224-14.427 28.391-25.33 46.256-31.39v15.424c0 18.909 16.333 33.716 35.185 31.83 70.781-7.12 142.685-8.853 213.713-5.153 4.393.195 8.175-3.161 8.405-7.573.229-4.412-3.161-8.176-7.573-8.405-71.84-3.744-144.56-1.99-216.146 5.212-9.413.953-17.583-6.411-17.583-15.91v-51.239c0-8.225 6.191-15.071 14.401-15.925 96.486-10.038 194.33-10.038 290.812 0 8.209.854 14.4 7.7 14.4 15.925v51.236c0 9.488-8.163 16.86-17.613 15.91-4.454-.448-16.085-1.526-17.263-1.63-4.404-.397-8.285 2.864-8.672 7.266-.389 4.401 2.865 8.284 7.266 8.672.712.063 1.441.133 2.157.197 14.163 7.597 26.347 18.646 35.292 32.054 10.362 15.531 33.78 13.638 41.636-3.364l3.504-7.585 19.292-8.171c14.91-6.317 19.406-25.283 8.864-37.727z" fill="#2e58ff"/></g></svg>