<svg clip-rule="evenodd" fill-rule="evenodd" height="512" image-rendering="optimizeQuality" shape-rendering="geometricPrecision" text-rendering="geometricPrecision" viewBox="0 0 1707 1707" width="512" xmlns="http://www.w3.org/2000/svg"><g id="Layer_x0020_1"><g id="_538024032"><path d="m164 1008h337v658h-337z" fill="#ff4c5b"/><path d="m1206 1008h337v658h-337z" fill="#2982ff"/><path d="m685 631h337v1035h-337z" fill="#d90048"/><g fill="#ffd40d"><path d="m853 0 72 166 180 17-136 119 40 176-156-92-155 92 40-176-136-119 180-17z"/><path d="m1374 391 72 166 180 16-136 119 40 177-156-93-155 93 40-177-136-119 180-16z"/><path d="m332 391 72 166 180 16-136 119 40 177-156-93-155 93 40-177-136-119 180-16z"/></g><path d="m53 1625c-23 0-41 18-41 41 0 22 18 41 41 41h1601c23 0 41-19 41-41 0-23-18-41-41-41z" fill="#151f1f" fill-rule="nonzero"/></g></g></svg>