<svg id="Layer_1" enable-background="new 0 0 512 512" height="512" viewBox="0 0 512 512" width="512" xmlns="http://www.w3.org/2000/svg"><g><path d="m256 441.75c-8.284 0-15-6.716-15-15v-75.5c0-8.284 6.716-15 15-15s15 6.716 15 15v75.5c0 8.285-6.716 15-15 15z" fill="#fff4f4"/><path d="m104 209.409c-57.346 0-104-46.654-104-104s46.654-104 104-104 104 46.654 104 104c0 57.345-46.654 104-104 104z" fill="#ffde46"/><path d="m103.977 159.984c-18.196 0-35.309-9.696-44.661-25.305-4.258-7.106-1.948-16.319 5.158-20.577 7.106-4.257 16.319-1.948 20.577 5.158 3.963 6.615 11.215 10.724 18.926 10.724 7.733 0 14.996-4.127 18.954-10.77 4.24-7.117 13.446-9.449 20.563-5.208 7.117 4.24 9.449 13.447 5.208 20.563-9.34 15.677-26.478 25.415-44.725 25.415z" fill="#00429d"/><g><ellipse clip-rule="evenodd" cx="76.389" cy="80.267" fill="#00429d" fill-rule="evenodd" rx="15" ry="15" transform="matrix(.379 -.925 .925 .379 -26.85 120.513)"/></g><g><circle clip-rule="evenodd" cx="132.632" cy="80.267" fill="#00429d" fill-rule="evenodd" r="15"/></g><path d="m408 208.25c-57.346 0-104-46.654-104-104s46.654-104 104-104 104 46.654 104 104-46.654 104-104 104z" fill="#ff435b"/><path d="m439.831 152.345c-5.112 0-10.093-2.614-12.9-7.324-3.959-6.644-11.222-10.771-18.955-10.771-7.711 0-14.963 4.109-18.926 10.724-4.257 7.107-13.469 9.417-20.576 5.158-7.106-4.257-9.416-13.47-5.158-20.576 9.352-15.609 26.464-25.306 44.661-25.306 18.247 0 35.385 9.738 44.726 25.414 4.241 7.117 1.909 16.323-5.208 20.564-2.407 1.434-5.053 2.117-7.664 2.117z" fill="#00347b"/><g><circle clip-rule="evenodd" cx="379.878" cy="78.598" fill="#00347b" fill-rule="evenodd" r="15"/></g><g><circle clip-rule="evenodd" cx="436.121" cy="78.598" fill="#00347b" fill-rule="evenodd" r="15"/></g><ellipse clip-rule="evenodd" cx="256" cy="466.75" fill="#7dd5f4" fill-rule="evenodd" rx="30" ry="30" transform="matrix(.987 -.159 .159 .987 -70.829 46.542)"/><path d="m256 511.75c-24.813 0-45-20.187-45-45s20.187-45 45-45 45 20.187 45 45-20.187 45-45 45zm0-60c-8.271 0-15 6.729-15 15s6.729 15 15 15 15-6.729 15-15-6.729-15-15-15z" fill="#00429d"/><path d="m256 336.25v105.5c8.284 0 15-6.716 15-15v-75.5c0-8.284-6.716-14.999-15-15z" fill="#f6efea"/><path clip-rule="evenodd" d="m256 436.75v60c16.523 0 30-13.477 30-30s-13.476-30-30-30z" fill="#4793ff" fill-rule="evenodd"/><path d="m256 421.75v30c8.271 0 15 6.729 15 15s-6.729 15-15 15v30c24.813 0 45-20.187 45-45s-20.186-45-45-45z" fill="#00347b"/><g><path d="m422 466.735-.006.471c-.012 3.986 1.563 7.813 4.378 10.635 2.814 2.822 6.636 4.409 10.622 4.409h60c8.284 0 15-6.702 15-14.986l.006-.514c0-64.528-23.723-125.404-67.027-172.691l-43.407 19.767-20.382 44.023c25.408 29.168 40.816 67.262 40.816 108.886z" fill="#ff435b"/><path d="m0 466.75.006.544c.024 8.267 6.733 14.956 15 14.956h60c8.284 0 15-6.716 15-15l-.006-.5c0-41.632 15.408-79.73 40.817-108.9l-19.208-41.676-44.582-22.114c-43.304 47.286-67.027 108.163-67.027 172.69z" fill="#bee75e"/><path d="m256 300.75 15-44.75-15-45.25c-68.38 0-132.667 26.629-181.019 74.981-2.724 2.724-5.369 5.505-7.954 8.328l63.79 63.79c30.456-34.963 75.282-57.099 125.183-57.099z" fill="#ffcd00"/><path d="m256 300.75c49.902 0 94.728 22.136 125.184 57.099l31.941-31.941 31.848-31.848c-2.585-2.823-5.23-5.604-7.954-8.328-48.352-48.353-112.639-74.982-181.019-74.982z" fill="#ff8856"/></g></g></svg>