<svg id="Layer_1" enable-background="new 0 0 54 54" height="512" viewBox="0 0 54 54" width="512" xmlns="http://www.w3.org/2000/svg"><g><g><g><path d="m36.082 14.435c-2.127.615-4.156 1.539-6.284 2.149-4.169 1.195-8.578 1.153-12.877 1.72-4.3.567-8.77 1.905-11.629 5.165-3.716 4.237-3.677 10.94-.831 15.804s7.997 8.033 13.395 9.653c4.462 1.339 9.249 1.738 13.81.79s8.879-3.293 11.891-6.846c2.105-2.483 3.527-5.471 4.705-8.505 1.503-3.873 2.66-8.065 1.912-12.151-1.297-7.079-7.638-9.646-14.092-7.779z" fill="#ffe8b6"/></g><g><circle cx="5.858" cy="13.846" fill="#ff5892" r=".96"/></g><g><path d="m46.842 10.474c0-.53.429-.96.96-.96s.96.429.96.96c0 .53-.429.96-.96.96s-.96-.429-.96-.96" fill="#06d506"/></g></g><g><path d="m27.969 3.973 1.247 2.527c.094.191.277.324.488.355l2.789.405c1.43.208 2.001 1.965.966 2.973l-2.018 1.967c-.153.149-.223.364-.186.574l.476 2.778c.244 1.424-1.25 2.51-2.529 1.838l-2.495-1.312c-.189-.099-.415-.099-.603 0l-2.495 1.312c-1.279.672-2.773-.414-2.529-1.838l.476-2.778c.036-.21-.034-.425-.186-.574l-2.018-1.967c-1.035-1.008-.464-2.765.966-2.973l2.789-.405c.211-.031.394-.163.488-.355l1.247-2.527c.64-1.296 2.487-1.296 3.127 0z" fill="#fdcb4d"/><path d="m10.92 18.993 1.061 2.15c.08.163.236.276.415.302l2.373.345c1.216.177 1.702 1.671.822 2.529l-1.717 1.673c-.13.127-.189.309-.159.488l.405 2.363c.208 1.211-1.064 2.135-2.151 1.563l-2.122-1.116c-.161-.084-.353-.084-.513 0l-2.122 1.116c-1.088.572-2.359-.352-2.151-1.563l.405-2.363c.031-.179-.029-.361-.159-.488l-1.717-1.674c-.88-.858-.394-2.352.822-2.529l2.373-.345c.18-.026.335-.139.415-.302l1.061-2.15c.544-1.101 2.115-1.101 2.659.001z" fill="#fdcb4d"/><g><path d="m45.928 16.663 1.061 2.15c.08.163.236.276.415.302l2.373.345c1.216.177 1.702 1.671.822 2.529l-1.717 1.673c-.13.127-.189.309-.159.488l.405 2.363c.208 1.211-1.064 2.135-2.151 1.563l-2.122-1.116c-.161-.084-.353-.084-.513 0l-2.122 1.116c-1.088.572-2.359-.352-2.151-1.563l.405-2.363c.031-.179-.029-.361-.159-.488l-1.717-1.673c-.88-.858-.394-2.352.822-2.529l2.373-.345c.18-.026.335-.139.415-.302l1.061-2.15c.543-1.102 2.115-1.102 2.659 0z" fill="#fdcb4d"/><g fill="#2e3f68"><path d="m16.086 37.427h-12.992c-.276 0-.5.224-.5.5v13.072c0 .276.224.5.5.5h12.992c.276 0 .5-.224.5-.5v-13.072c0-.277-.223-.5-.5-.5zm-.5 13.072h-11.992v-12.072h11.992z"/><path d="m32.902 24.347h-12.992c-.276 0-.5.224-.5.5v26.151c0 .276.224.5.5.5h12.992c.276 0 .5-.224.5-.5v-26.151c0-.276-.224-.5-.5-.5zm-.5 26.152h-11.992v-25.152h11.992z"/><path d="m51.094 32.959h-12.992c-.276 0-.5.224-.5.5v17.54c0 .276.224.5.5.5h12.992c.276 0 .5-.224.5-.5v-17.54c0-.277-.223-.5-.5-.5zm-.5 17.54h-11.992v-16.54h11.992z"/><path d="m32.565 6.766-2.789-.405c-.048-.007-.09-.038-.112-.082l-1.247-2.527c-.381-.771-1.152-1.25-2.012-1.25s-1.63.479-2.011 1.25l-1.247 2.528c-.021.043-.063.074-.111.081l-2.789.405c-.851.124-1.545.708-1.811 1.526s-.048 1.699.567 2.3l2.018 1.967c.035.034.051.083.043.131l-.477 2.778c-.146.848.196 1.688.893 2.194.695.506 1.601.571 2.362.17l2.494-1.311c.043-.023.095-.023.138 0l2.495 1.312c.332.174.69.26 1.046.26.463 0 .923-.145 1.316-.431.696-.506 1.037-1.347.892-2.194l-.476-2.778c-.008-.048.008-.097.043-.131l2.018-1.967c.616-.601.833-1.481.567-2.299-.265-.819-.959-1.404-1.81-1.527zm.545 3.11-2.018 1.967c-.271.264-.394.644-.33 1.016l.476 2.778c.082.477-.103.931-.494 1.216-.393.284-.881.319-1.309.095l-2.495-1.312c-.167-.087-.351-.131-.534-.131s-.367.044-.535.132l-2.495 1.312c-.427.226-.917.19-1.309-.095s-.576-.739-.495-1.216l.477-2.778c.064-.373-.06-.752-.33-1.016l-2.018-1.967c-.347-.338-.464-.814-.315-1.275.15-.46.525-.776 1.003-.846l2.789-.405c.375-.054.698-.29.865-.628l1.248-2.527c.214-.434.631-.693 1.114-.693.484 0 .901.259 1.115.693l1.247 2.528c.168.339.491.574.865.628l2.789.405c.479.07.854.386 1.003.846.151.458.033.935-.314 1.273z"/><path d="m4.973 26.395-.405 2.363c-.128.749.174 1.492.789 1.939.348.252.754.381 1.164.381.315 0 .631-.076.924-.23l2.17-1.116 2.123 1.116c.671.353 1.473.296 2.088-.151s.917-1.19.789-1.939l-.39-2.409 1.717-1.674c.544-.53.736-1.309.501-2.032s-.848-1.24-1.601-1.35l-2.412-.373-1.061-2.15c-.336-.682-1.018-1.105-1.778-1.105s-1.441.424-1.778 1.105l-1.1 2.178-2.373.347c-.752.109-1.366.626-1.601 1.35s-.042 1.501.501 2.032zm-1.283-3.442c.118-.364.415-.614.793-.669l2.374-.345c.342-.05.637-.265.791-.575l1.061-2.15c.169-.343.499-.548.881-.548s.712.205.881.548l1.061 2.151c.154.31.449.524.792.574l2.373.345c.378.055.675.305.793.669.118.363.025.74-.249 1.007l-1.716 1.673c-.249.241-.362.589-.303.931l.405 2.363c.064.377-.082.736-.391.961s-.698.252-1.035.075l-2.122-1.116c-.307-.161-.673-.161-.979 0l-2.122 1.116c-.336.179-.724.15-1.034-.075s-.456-.584-.392-.961l.405-2.363c.059-.342-.055-.69-.302-.931l-1.716-1.673c-.274-.267-.367-.643-.249-1.007z"/><path d="m39.981 24.065-.405 2.363c-.128.749.174 1.492.789 1.939.616.446 1.415.504 2.088.151l2.17-1.116 2.122 1.116c.293.154.609.23.924.23.41 0 .816-.128 1.164-.381.615-.447.917-1.19.789-1.939l-.391-2.409 1.717-1.673c.544-.531.737-1.31.502-2.033s-.849-1.24-1.601-1.349l-2.412-.373-1.061-2.15c-.336-.682-1.018-1.105-1.778-1.105s-1.441.424-1.778 1.105l-1.1 2.178-2.373.345c-.752.109-1.365.625-1.601 1.349-.235.723-.043 1.502.501 2.033zm-1.283-3.443c.118-.364.415-.613.793-.668l2.372-.345c.342-.049.639-.264.792-.575l1.061-2.15c.339-.686 1.424-.686 1.763 0l1.061 2.151c.154.31.45.524.792.574l2.373.345c.378.055.675.305.793.668s.025.741-.249 1.008l-1.717 1.674c-.248.242-.36.59-.301.93l.405 2.363c.064.377-.082.736-.392.961-.309.225-.697.253-1.034.075l-2.123-1.116c-.153-.08-.321-.121-.489-.121s-.336.041-.49.121l-2.122 1.116c-.339.178-.726.15-1.035-.075-.31-.225-.456-.584-.391-.961l.405-2.363c.059-.341-.054-.69-.302-.931l-1.717-1.673c-.273-.267-.366-.644-.248-1.008z"/></g></g></g><g><circle cx="45.519" cy="46.685" fill="#ff5f4a" r=".96"/></g></g></svg>