<svg height="496pt" viewBox="0 0 496 496" width="496pt" xmlns="http://www.w3.org/2000/svg"><path d="m134.160156 378.871094-117.199218 117.128906-16.960938-16.960938 117.121094-117.117187zm0 0" fill="#656d78"/><path d="m496 479.039062-16.960938 16.960938-117.199218-117.128906 17.039062-16.949219zm0 0" fill="#656d78"/><path d="m361.839844 378.871094-16.960938 16.960937-16.957031-39.59375 28.316406-28.316406 39.601563 17.039063-16.960938 16.960937zm0 0" fill="#5d9cec"/><path d="m356.238281 327.921875-28.316406 28.316406-79.921875-84.078125-.640625-.648437 23.28125-24.871094.558594.550781zm0 0" fill="#4a89dc"/><path d="m248.558594 226.160156-23.199219 21.671875-.558594-.640625-224.800781-241.511718 5.679688-5.679688 242.320312 225.601562zm0 0" fill="#4a89dc"/><path d="m168.078125 356.238281-16.957031 39.59375-16.960938-16.960937-17.039062-16.949219-16.960938-16.960937 39.601563-17.039063zm0 0" fill="#ed5565"/><path d="m490.320312 0 5.679688 5.679688-225.359375 240.960937-23.28125 24.871094-79.28125 84.726562-28.316406-28.316406 85.597656-80.089844 23.199219-21.671875zm0 0" fill="#da4453"/></svg>