<svg id="Capa_1" enable-background="new 0 0 512 512" height="512" viewBox="0 0 512 512" width="512" xmlns="http://www.w3.org/2000/svg"><g><g><path d="m407.846 81.255 17.621 17.469c7.826 7.759 12.927 17.409 15.121 27.636 2.775 12.933-5.461 15.621-12.348 27.738l3.459 3.144c-1.677 2.95-2.896 5.489-5.188 2.987l-20.586-16.593-29.782-32.512c-8.4-9.61-6.781-24.35 3.505-31.907 8.624-6.337 20.574-5.473 28.198 2.038z" fill="#ffc344"/><path d="m405.924 143.636 20.643 22.536c2.292 2.502 6.357 2.043 8.034-.906 6.888-12.117 8.756-25.971 5.982-38.904-10.196 1.895-24.987 6.437-34.659 17.274z" fill="#685e68"/><path d="m379.529 42.851c-1.015.058-2.03.059-3.044.003-18.133.193-37.726 9.594-50.929 25.749-10.13 12.396-15.433 27.459-15.333 43.562 0 0 1.428 126.761-68.984 126.761-46.983 0 17.483 6.104 65.587 10.166-2.808 5.014-3.104 11.3-.213 16.756 3.142 5.927 9.206 9.308 15.477 9.308 2.764 0 5.569-.657 8.181-2.042 1.496-.793 36.723-19.835 45.444-56.455 5.426-22.784-.368-46.415-17.222-70.234-13.325-18.831-16.644-36.202-9.723-49.739 6.213 10.518 17.658 17.577 30.758 17.577 19.72 0 35.706-15.986 35.706-35.706.001-19.72-15.985-35.706-35.705-35.706z" fill="#fe7ab6"/><path d="m363.747 300.225-70.789-10-154.706 10c-19.321 0-34.983 15.662-34.983 34.983 0 19.321 15.662 34.983 34.983 34.983h225.495c19.321 0 34.983-15.662 34.983-34.983 0-19.321-15.662-34.983-34.983-34.983z" fill="#ffe177"/><path d="m373.747 300.225-10-10-20 10c19.32 0 34.983 15.662 34.983 34.983 0 19.32-15.662 34.983-34.983 34.983h30c19.32 0 34.983-15.662 34.983-34.983 0-19.321-15.662-34.983-34.983-34.983z" fill="#ffc344"/><path d="m393.747 230.259h-285.494c-19.321 0-34.983 15.662-34.983 34.983 0 19.32 15.662 34.983 34.983 34.983h285.495c19.32 0 34.983-15.662 34.983-34.983-.001-19.321-15.663-34.983-34.984-34.983z" fill="#fea3ce"/><path d="m403.747 230.259h-30c19.32 0 34.983 15.662 34.983 34.983 0 19.32-15.662 34.983-34.983 34.983h30c19.32 0 34.983-15.663 34.983-34.983 0-19.321-15.662-34.983-34.983-34.983z" fill="#fe7ab6"/><path d="m7.5 345.535c0-5.819 4.949-10.38 10.754-9.972 31.035 2.179 34.596 13.645 72.077 13.645 41.416 0 41.416-14 82.832-14 41.415 0 41.415 14 82.831 14s41.416-14 82.833-14c41.418 0 41.418 14 82.837 14 28.018 0 37.083-6.406 52.837-10.552 5.344-1.406 11.459-2.552 19.344-3.1 5.766-.4 10.656 4.201 10.656 9.98v113.613c0 5.523-4.477 10-10 10h-477c-5.523 0-10-4.477-10-10v-113.614z" fill="#99e6fc"/><g><path d="m493.844 335.556c-7.885.548-14 1.694-19.344 3.1-.755.199-1.491.404-2.218.612 1.379 1.714 2.219 3.887 2.219 6.268v113.613c0 5.523-4.477 10-10 10h30c5.523 0 10-4.477 10-10v-113.613c-.001-5.779-4.892-10.38-10.657-9.98z" fill="#01d0fb"/></g></g><g><path d="m506.431 332.727c-3.526-3.29-8.297-4.982-13.107-4.653-7.489.521-14.077 1.579-20.733 3.33-4.358 1.147-8.197 2.444-11.911 3.699-10.049 3.397-19.541 6.605-39.017 6.605-2.085 0-4.049-.039-5.918-.109.318-2.107.485-4.241.485-6.391 0-10.505-3.841-20.124-10.181-27.548 22.359-1.2 40.181-19.766 40.181-42.418 0-23.426-19.058-42.483-42.483-42.483h-21.925c.434-1.45.841-2.904 1.189-4.363 5.948-24.975-.241-50.646-18.395-76.304-8.741-12.352-11.718-22.144-11.869-29.669 6.506 5.132 14.427 8.361 22.794 9.147l45.495 49.668c2.376 2.593 5.747 4.056 9.229 4.056.462 0 .926-.026 1.391-.078 3.958-.447 7.497-2.781 9.465-6.245 13.976-24.585 9.71-55.662-10.374-75.572l-8.492-8.419c.314-2.096.48-4.24.48-6.422 0-23.823-19.382-43.205-43.206-43.205-.142 0-.284.004-.425.012-.733.042-1.477.042-2.208.003-.164-.01-.329-.012-.491-.012-20.759.221-42.468 11.142-56.657 28.502-11.249 13.765-17.136 30.485-17.025 48.39.001.123.106 12.42-1.827 28.968-.481 4.114 2.465 7.839 6.579 8.319 4.12.487 7.839-2.465 8.319-6.579 2.052-17.562 1.934-30.338 1.928-30.836-.089-14.336 4.628-27.742 13.64-38.77 11.398-13.946 28.615-22.74 44.98-22.991 1.121.053 2.253.051 3.374-.005 15.466.101 28.018 12.715 28.018 28.204 0 15.553-12.653 28.206-28.206 28.206-9.928 0-19.239-5.323-24.301-13.892-1.39-2.354-3.947-3.802-6.686-3.682-2.733.083-5.205 1.647-6.449 4.082-8.223 16.082-4.572 36.497 10.278 57.484 15.554 21.981 20.954 43.57 16.049 64.165-.627 2.634-1.445 5.256-2.418 7.838h-77.598c8.785-11.096 15.748-25.979 20.76-44.469 1.083-3.997-1.279-8.117-5.276-9.2-3.999-1.086-8.117 1.278-9.201 5.276-5.974 22.036-14.701 37.94-25.939 47.27-.412.342-.776.719-1.095 1.123h-87.892c-4.142 0-7.5 3.357-7.5 7.5s3.358 7.5 7.5 7.5h223.987c15.154 0 27.483 12.329 27.483 27.483s-12.329 27.482-27.483 27.482h-295.495c-15.154 0-27.483-12.328-27.483-27.482s12.329-27.483 27.483-27.483h38.821c4.142 0 7.5-3.357 7.5-7.5s-3.358-7.5-7.5-7.5h-38.821c-23.425 0-42.483 19.058-42.483 42.483 0 22.652 17.822 41.218 40.181 42.418-6.34 7.423-10.181 17.043-10.181 27.548 0 2.152.169 4.286.487 6.391-1.871.07-3.838.109-5.926.109-19.475 0-28.965-3.209-39.014-6.605-8.696-2.939-17.687-5.98-32.539-7.021-4.849-.337-9.67 1.362-13.22 4.672-3.531 3.293-5.557 7.952-5.557 12.781v113.613c0 9.65 7.851 17.5 17.5 17.5h477c9.649 0 17.5-7.85 17.5-17.5v-113.612c0-4.839-2.03-9.508-5.569-12.809zm-76.743-174.251-13.19-14.399c5.462-4.153 11.918-6.814 17.734-8.508.394 7.753-1.084 15.632-4.544 22.907zm-13.006-57.9 3.504 3.474c4.914 4.872 8.58 10.623 10.944 16.805-7.885 2.195-17.02 5.899-24.798 12.123l-12.509-13.656c9.633-3.388 17.712-10.094 22.859-18.746zm80.318 358.572c0 1.379-1.122 2.5-2.5 2.5h-477c-1.378 0-2.5-1.121-2.5-2.5v-113.613c0-.89.428-1.476.788-1.811.304-.284.965-.749 1.941-.681 12.926.907 20.629 3.512 28.785 6.269 10.755 3.636 21.876 7.396 43.818 7.396 21.941 0 33.062-3.76 43.817-7.395 10.048-3.398 19.54-6.605 39.014-6.605s28.965 3.208 39.014 6.605c10.755 3.635 21.876 7.395 43.817 7.395s33.062-3.76 43.817-7.395c6.687-2.261 13.004-4.396 22.122-5.602 4.107-.544 6.995-4.312 6.452-8.419-.543-4.105-4.311-6.987-8.418-6.452-10.569 1.398-17.884 3.871-24.958 6.262-10.048 3.397-19.539 6.605-39.014 6.605-19.474 0-28.965-3.208-39.013-6.605-10.755-3.635-21.876-7.395-43.817-7.395s-33.062 3.76-43.818 7.395c-5.607 1.896-11.043 3.732-18.135 4.986-.286-1.601-.44-3.231-.44-4.88 0-15.154 12.329-27.483 27.483-27.483h235.495c15.154 0 27.483 12.329 27.483 27.483 0 1.649-.159 3.278-.446 4.88-7.093-1.253-12.53-3.09-18.138-4.986-8.043-2.718-16.358-5.529-29.361-6.76-4.118-.385-7.783 2.637-8.173 6.76-.39 4.124 2.636 7.783 6.76 8.174 11.266 1.066 18.409 3.48 25.971 6.037 10.755 3.635 21.877 7.395 43.82 7.395s33.065-3.76 43.821-7.395c3.633-1.229 7.064-2.389 10.924-3.404 5.723-1.506 11.429-2.418 17.956-2.871.916-.082 1.542.384 1.835.656.299.279.802.89.802 1.842v113.612z"/><path d="m385.756 76.164c0-4.142-3.358-7.5-7.5-7.5s-7.5 3.358-7.5 7.5c0 4.142 3.358 7.5 7.5 7.5s7.5-3.358 7.5-7.5z"/></g></g></svg>