<svg id="Capa_1" enable-background="new 0 0 511.999 511.999" height="512" viewBox="0 0 511.999 511.999" width="512" xmlns="http://www.w3.org/2000/svg"><g><g><path d="m409.68 261.172v36.08c0 61.74-27.82 116.98-71.62 153.85v.01c-10.36 8.73-21.62 16.44-33.62 22.96-15.06 8.19-31.3 14.51-48.4 18.64-10.75 2.6-21.85 4.33-33.19 5.13-4.72.34-9.47.5-14.26.5-11.22 0-22.22-.92-32.94-2.69-22.43-3.69-43.62-11.1-62.9-21.58-12-6.51-23.26-14.21-33.62-22.95-43.8-36.87-71.63-92.12-71.63-153.87v-36.08c0-51.8 19.58-99 51.76-134.66v-.01c16.51-18.31 36.36-33.57 58.58-44.83 20.65-10.45 43.35-17.46 67.34-20.23 7.68-.9 15.49-1.36 23.41-1.36 9.6 0 19.03.67 28.27 1.98 22.2 3.12 43.24 9.87 62.49 19.62 19.1 9.67 36.43 22.3 51.43 37.29 2.45 2.45 4.84 4.98 7.16 7.55 32.16 35.66 51.74 82.86 51.74 134.65z" fill="#57be92"/><path d="m357.94 126.522c-2.32-2.57-4.71-5.1-7.16-7.55-15-14.99-32.33-27.62-51.43-37.29-19.25-9.75-40.29-16.5-62.49-19.62-9.24-1.31-18.67-1.98-28.27-1.98-7.92 0-15.73.46-23.41 1.36-.304.035-.605.079-.909.115 97.247 12.181 176.376 98.018 175.379 199.615 5.889 71.492-16.54 146.436-71.62 189.93v.01c-29.288 25.047-66.268 40.812-104.59 45.667 8.239 1.03 16.63 1.563 25.15 1.563 4.79 0 9.54-.16 14.26-.5 11.34-.8 22.44-2.53 33.19-5.13 17.1-4.13 33.34-10.45 48.4-18.64 12-6.52 23.26-14.23 33.62-22.96 0 0 0 0 0-.01 43.8-36.87 71.62-92.11 71.62-153.85v-36.08c0-51.79-19.58-98.99-51.74-134.65z" fill="#22b27f"/><path d="m256.04 492.712c-10.75 2.6-21.85 4.33-33.19 5.13-4.72.34-9.47.5-14.26.5-11.22 0-22.22-.92-32.94-2.69-20.22-52.69 7.22-203.99 9.88-232.45 2.68-28.45-7.14-58.39-17.52-103.65-10.28-44.82 16.65-97.12 17.17-98.11 7.68-.9 15.49-1.36 23.41-1.36 9.6 0 19.03.67 28.27 1.98 16.93 57.32-8.62 211.1-11.21 238.7-2.68 28.46 6.78 47.09 17.17 92.34 10.38 45.26 13.22 99.61 13.22 99.61z" fill="#ade194"/><g fill="#80d261"><path d="m240.103 77.308c-.839-5.608-1.908-10.728-3.243-15.247-9.24-1.31-18.67-1.98-28.27-1.98-7.92 0-15.73.46-23.41 1.36-.015.029-.055.106-.115.223 19.222 2.49 37.728 7.848 55.038 15.644z"/><path d="m183.44 496.778c8.239 1.03 16.63 1.563 25.15 1.563 4.79 0 9.54-.16 14.26-.5 11.34-.8 22.44-2.53 33.19-5.13 0 0-.382-7.299-1.375-18.766-22.018 11.918-46.334 19.681-71.225 22.833z"/></g><path d="m112.751 474.076c-12-6.514-23.257-14.219-33.618-22.952v-.01s-14.86-61.078-16.967-90.992c-3.267-46.096 18.542-97.2 13.392-131.399-3.43-22.87-14.155-65.221-16.303-102.208v-.01c16.519-18.31 36.366-33.577 58.585-44.834.01.01.01.01.01.01s3.941 85.994-4.293 115.877c-8.224 29.883-5.885 89.261-1 115.256 9.996 53.13 11.695 130.188.194 161.262z" fill="#ade194"/><path d="m355.029 360.122c-2.086 29.638-16.702 89.882-16.967 90.982v.01c-10.361 8.733-21.618 16.438-33.618 22.962-11.501-31.074-9.801-108.132.183-161.261 4.896-25.995 8.234-85.373 0-115.256-8.224-29.883-5.282-115.877-5.282-115.877 19.104 9.669 36.437 22.3 51.43 37.292 2.453 2.453 4.845 4.977 7.165 7.552-2.148 36.987-13.873 79.328-17.313 102.198-5.139 34.198 17.659 85.302 14.402 131.398z" fill="#ade194"/><g><path d="m347.776 192.63c4.275-20.484 8.895-44.23 10.165-66.104-2.321-2.575-4.713-5.099-7.165-7.552-14.992-14.992-32.326-27.623-51.43-37.292 0 0-.532 15.562-.51 35.744 21.495 20.967 38.453 46.629 48.94 75.204z" fill="#80d261"/></g><path d="m445.6 439.442c-74.46 74.46-192.78 78.32-271.78 11.58-7.07-5.97-7.43-16.75-.89-23.29l10.69-10.69 2.12-2.12 235.34-235.34 12.81-12.81c6.54-6.54 17.32-6.18 23.29.88 66.74 79.01 62.88 197.33-11.58 271.79z" fill="#57be92"/><path d="m457.18 167.652c-5.97-7.06-16.75-7.42-23.29-.88l-12.81 12.81-2.693 2.693c54.779 78.423 47.178 187.172-22.817 257.167-32.891 32.891-74.341 51.996-117.178 57.336 59.444 7.412 121.566-11.693 167.208-57.336 74.46-74.46 78.32-192.78 11.58-271.79z" fill="#22b27f"/><path d="m423.2 417.042c-31.94 31.95-74.49 49.54-119.79 49.54s-87.85-17.59-119.79-49.54l2.12-2.12 235.34-235.34 2.12-2.12c66.05 66.05 66.05 173.52 0 239.58z" fill="#fd4755"/><path d="m423.2 177.462-2.12 2.12-2.693 2.693c54.776 78.419 47.178 187.162-22.807 257.157 9.857-6.409 19.118-13.885 27.62-22.39 66.05-66.06 66.05-173.53 0-239.58z" fill="#fb2b3a"/></g><g><path d="m462.907 162.809c-4.171-4.933-10.28-7.917-16.76-8.188-6.538-.262-12.937 2.223-17.562 6.847l-25.142 25.142c-18.18-47.537-53.958-87.972-100.707-111.621-24.725-12.522-51.994-20.068-80.336-21.929 7.722-4.797 16.285-11.612 25.726-21.08 2.925-2.933 2.918-7.682-.015-10.607-2.934-2.925-7.683-2.918-10.606.015-9.212 9.238-17.16 15.409-23.913 19.458-2.92-15.566-8.091-25.761-15.669-30.986-4.757-3.28-12.8-6.114-24.114-.979-8.439 3.83-13.533 12.731-13.295 23.231.214 9.439 4.44 18.024 11.27 23.721-101.706 18.297-171.835 106.797-171.784 205.339v36.08c.356 139.355 130.87 232.89 256.013 203.163 17.528 4.055 36.615 6.021 55.696 5.261 52.549-2.08 101.982-23.719 139.194-60.931s58.851-86.646 60.931-139.195c2.067-52.248-15.308-102.94-48.927-142.741zm-342.978 148.62c-4.835-25.726-6.959-83.47.859-111.879 7.388-26.811 5.466-94.328 4.755-113.299 15.057-7.159 30.863-12.296 47.188-15.344-7.781 19.208-19.763 56.61-12.031 90.321 2.165 9.439 4.27 18.069 6.306 26.415 7.584 31.096 13.063 53.563 11.058 74.859-.465 4.969-1.762 14.167-3.403 25.812-6.444 49.108-21.062 139.998-9.664 197.6-14.969-3.439-29.43-8.661-43.185-15.578 10.06-36.297 7.465-109.215-1.883-158.907zm56.405 102.292c1.979-43.872 8.812-92.349 13.178-123.313 1.669-11.838 2.987-21.189 3.485-26.503 2.242-23.803-3.787-48.521-11.42-79.816-2.023-8.296-4.115-16.874-6.257-26.213-8.18-35.661 9.111-77.165 14.782-89.391 1.606-.111 3.022-.42 11.206-.737.234 6.631.15 13.122-.203 18.813-.258 4.133 2.883 7.693 7.017 7.952.159.01.318.015.476.015 3.928 0 7.229-3.057 7.479-7.032.029-.46.53-8.729.187-19.745 3.958.17 8.591.423 14.635 1.123 11.331 48.638-3.265 158.569-9.616 206.403-1.531 11.533-2.658 19.864-3.099 24.783-3.009 33.609 8.996 61.966 9.176 62.635zm64.699-43.486c1.652-1.696 2.725-4.423 1.94-7.247-.573-2.134-11.605-42.903-9.857-61.525.435-4.631 1.582-13.271 3.035-24.211 6.739-50.761 20.239-152.471 10.548-205.908 15.568 3.104 30.651 8.111 45.011 14.949-.497 18.903-1.691 86.462 5.688 113.26 5.915 21.493 5.654 60.34 2.745 90.36l-43.763 43.762c-2.929 2.929-2.929 7.678 0 10.606s7.677 2.929 10.607 0l156.091-156.09c57.895 63.452 56.165 162.193-5.183 223.55-30.521 30.529-71.179 47.342-114.486 47.342-40.792 0-79.232-14.915-109.063-42.159zm66.011-275.779c14.754 8.857 29.039 19.57 43.203 34.775-1.69 23.364-7.091 48.985-11.469 69.747-2.357 11.185-4.394 20.844-5.564 28.627-1.219 8.094-1.12 17.363.315 28.921l-17.119 17.119c1.548-27.89.717-58.941-4.549-78.075-6.024-21.879-5.766-76.823-5.312-101.41.166.098.33.198.495.296zm40.373 148.183c-.154-4.781.057-8.992.63-12.801 1.105-7.35 3.1-16.811 5.409-27.765 3.563-16.902 7.785-36.952 10.247-56.735 12.089 16.125 21.487 33.869 28.032 52.982zm-167.408-220.098c2.781-.993 6.001-2.563 9.398-.333 4.96 3.418 8.168 13.148 10.015 24.822-6.846 1.718-11.429.746-13.938-.259-6.715-2.687-9.848-9.469-9.973-14.999-.038-1.669.174-7.269 4.498-9.231zm-165.009 274.711v-36.08c0-41.973 13.538-82.454 38.431-115.769 1.963 16.661 5.087 33.81 8.298 50.237.794 4.065 4.734 6.716 8.799 5.922 4.065-.795 6.717-4.734 5.922-8.8-4.101-20.978-8.063-43.118-9.504-63.531 11.669-12.453 26.154-24.866 43.84-35.159.724 24.492 1.573 79.603-4.46 101.496-8.501 30.89-6.353 90.894-1.14 118.633 9.587 50.962 10.663 116.341 3.066 148.634-3.724-2.411-9.93-5.791-22.408-15.903-2.741-11.546-14.39-61.698-16.197-87.341-1.578-22.263 2.985-45.92 7.398-68.799 4.46-23.122 8.673-44.961 5.928-63.187-.616-4.096-4.438-6.909-8.533-6.299-4.096.617-6.916 4.438-6.299 8.533 2.361 15.679-1.615 36.291-5.824 58.112-4.597 23.83-9.35 48.471-7.633 72.697 1.285 18.239 7.054 47.172 11.557 67.785-32.803-35.55-51.241-82.167-51.241-131.181zm207.311 193.109c-12.838.871-26.203.63-41.042-1.44-2.086-6.838-3.58-15.506-4.481-25.898 14.604 11.184 30.504 20.297 47.284 27.196-.588.046-1.174.101-1.761.142zm274.535-185.405c-1.931 48.768-22.014 94.646-56.55 129.182-34.535 34.536-80.413 54.619-129.18 56.549-47.325 2.014-95.659-14.101-132.457-45.396-2.746-2.379-4.422-8.005-.427-12.256l5.505-5.504c32.672 30.07 74.874 46.551 119.673 46.551 47.314 0 91.74-18.374 125.094-51.737 67.193-67.204 68.913-175.453 5.183-244.763l5.507-5.507c1.69-1.69 3.932-2.568 6.328-2.466 2.334.097 4.44 1.122 5.929 2.883 31.193 36.927 47.314 83.971 45.395 132.464z"/><path d="m261.105 386.57c-2.93-2.929-7.678-2.929-10.607 0s-2.929 7.678 0 10.606l6.512 6.512c1.465 1.464 3.385 2.197 5.304 2.197s3.839-.732 5.304-2.197c2.929-2.929 2.929-7.678 0-10.606z"/><path d="m309.724 358.474c1.919 0 3.839-.732 5.304-2.197 2.929-2.929 2.929-7.678-.001-10.607l-6.512-6.511c-2.928-2.929-7.677-2.928-10.606 0-2.929 2.929-2.929 7.678.001 10.607l6.512 6.511c1.463 1.465 3.383 2.197 5.302 2.197z"/><path d="m351.83 308.867c1.465 1.464 3.384 2.197 5.304 2.197 1.919 0 3.839-.732 5.303-2.196 2.93-2.929 2.93-7.678.001-10.607l-6.511-6.511c-2.93-2.928-7.679-2.929-10.606 0-2.93 2.929-2.93 7.678-.001 10.607z"/><path d="m399.242 261.457c1.464 1.464 3.384 2.196 5.303 2.196s3.839-.732 5.304-2.197c2.929-2.929 2.929-7.678-.001-10.607l-6.512-6.511c-2.928-2.929-7.677-2.928-10.606 0-2.929 2.929-2.929 7.678.001 10.607z"/><path d="m308.267 396.926c-2.93 2.929-2.93 7.678-.001 10.607l6.511 6.511c1.465 1.464 3.384 2.197 5.304 2.197 1.919 0 3.839-.732 5.303-2.196 2.93-2.929 2.93-7.678.001-10.607l-6.511-6.511c-2.93-2.929-7.679-2.929-10.607-.001z"/><path d="m355.677 349.516c-2.93 2.929-2.93 7.678-.001 10.607l6.511 6.511c1.465 1.464 3.384 2.197 5.304 2.197 1.919 0 3.839-.732 5.303-2.196 2.93-2.929 2.93-7.678.001-10.607l-6.511-6.511c-2.929-2.929-7.679-2.93-10.607-.001z"/><path d="m403.086 302.106c-2.929 2.929-2.929 7.678.001 10.607l6.512 6.511c1.464 1.464 3.384 2.196 5.303 2.196s3.839-.732 5.304-2.197c2.929-2.929 2.929-7.678-.001-10.607l-6.512-6.511c-2.928-2.928-7.677-2.928-10.607.001z"/></g></g></svg>